<?xml version="1.0" encoding="utf-8"?>
<!-- Generator: Adobe Illustrator 24.1.2, SVG Export Plug-In . SVG Version: 6.00 Build 0)  -->
<svg version="1.1" id="Layer_1" xmlns="http://www.w3.org/2000/svg" xmlns:xlink="http://www.w3.org/1999/xlink" x="0px" y="0px"
	 viewBox="0 0 512 512" style="enable-background:new 0 0 512 512;" xml:space="preserve">
<style type="text/css">
	.st0{fill:#FFFFFF;}
</style>
<g id="Pingpong">
	<path class="st0" d="M275.7,431.2c-31.5,0-58.5-14.3-81-36.8l-77.2-77.2c-32-32-43.2-68.4-33.4-108.2c7.2-29.1,25.6-59.6,56.2-92.9
		c6-6.5,16.1-7,22.6-1s7,16.1,1,22.6l0,0c-26.9,29.3-42.9,55.2-48.7,79c-7,28.6,1.1,54.1,24.9,77.9l77.2,77.2
		c25.9,25.9,54,33.3,86,22.5c25.5-8.6,53.6-28.4,85.8-60.7c24.1-24.1,67.1-73.3,84.1-131.5c15.2-52.1,4.8-96.7-31-132.5
		c-60.2-60-134.4-37.1-186.1-7.3c-7.7,4.4-17.4,1.8-21.9-5.9s-1.8-17.4,5.9-21.9c86.7-50,166.5-45.5,224.7,12.7
		c91,91,37.5,218.6-53.1,309.2C375.3,392.9,327.5,431.2,275.7,431.2z"/>
	<path class="st0" d="M37.9,498l-23.8-23.9c-18.7-18.8-18.7-49.1,0-67.9c1.2-1.2,2.5-2.4,3.9-3.5l72.9-58.5
		c6.8-5.5,11.6-13,13.8-21.5l5.8-23.4c1.7-8.7,10.1-14.3,18.8-12.6c8.7,1.7,14.3,10.1,12.6,18.8c-0.1,0.5-0.2,1.1-0.4,1.6l-5.9,23.4
		c-3.8,15.3-12.6,28.8-24.8,38.7L38,427.7c-6.9,5.5-8,15.6-2.5,22.5c0.4,0.5,0.8,0.9,1.2,1.3l23.8,23.8c6.3,6.2,16.4,6.2,22.6,0
		c0.4-0.4,0.8-0.8,1.2-1.3l58.5-72.9c9.9-12.3,23.5-21,38.7-24.8l23.5-5.8c8.4-2.6,17.4,2.2,20,10.6s-2.2,17.4-10.6,20
		c-0.5,0.2-1.1,0.3-1.6,0.4l-23.5,5.9c-8.5,2.1-16,7-21.5,13.8L109.3,494c-16.6,20.7-46.8,24.1-67.5,7.5
		C40.4,500.4,39.1,499.2,37.9,498z"/>
	<path class="st0" d="M312.2,414.8l-215-215c-6.1-6.4-5.8-16.5,0.6-22.6c6.2-5.9,15.9-5.9,22,0l214.9,214.9
		c6.4,6.1,6.7,16.2,0.6,22.6s-16.2,6.7-22.6,0.6C312.5,415.2,312.3,415,312.2,414.8z"/>
	<path class="st0" d="M193,158c-43.6,0-79-35.4-79-79s35.4-79,79-79s79,35.4,79,79S236.6,158,193,158z M193,32c-26,0-47,21-47,47
		s21,47,47,47s47-21,47-47S219,32,193,32z"/>
</g>
</svg>
