<?xml version="1.0" encoding="utf-8"?>
<!-- Generator: Adobe Illustrator 24.1.2, SVG Export Plug-In . SVG Version: 6.00 Build 0)  -->
<svg version="1.1" id="Layer_1" xmlns="http://www.w3.org/2000/svg" xmlns:xlink="http://www.w3.org/1999/xlink" x="0px" y="0px"
	 viewBox="0 0 512 512" style="enable-background:new 0 0 512 512;" xml:space="preserve">
<style type="text/css">
	.st0{fill:#FFFFFF;}
</style>
<g id="Salad">
	<path class="st0" d="M360.9,432H151.1C77.3,431.9,15.2,376.9,6.2,303.7L0.1,254c-1.1-8.8,5.2-16.8,13.9-17.8
		c0.6-0.1,1.3-0.1,1.9-0.1h480c8.8,0,16,7.2,16,16c0,0.6,0,1.3-0.1,1.9l-6.1,49.7C496.8,376.9,434.7,431.9,360.9,432z M34.1,268
		l3.9,31.8C45,357,93.5,399.9,151.1,400h209.8c57.6,0,106.1-43,113.2-100.2L478,268H34.1z"/>
	<path class="st0" d="M381,486H131c-8.8,0-16-7.2-16-16c0-1.9,0.3-3.8,1-5.6l20-54c2.3-6.3,8.3-10.4,15-10.4h210
		c6.7,0,12.7,4.2,15,10.4l20,54c3.1,8.3-1.2,17.5-9.4,20.6C384.8,485.7,382.9,486,381,486z M154,454h204l-8.1-22H162.1L154,454z"/>
	<path class="st0" d="M328.1,268c-6,0-11.5-3.3-14.2-8.6c-0.7-1.3-1.5-2.6-2.4-3.8c-3.9-5.4-4.1-12.6-0.5-18.1
		c3.6-5.4,5.6-11.7,5.6-18.1c0-11.6-6.6-20.5-12.1-25.9c-3.4-3.3-5.1-8-4.7-12.7c0.1-1.9,0.2-3.6,0.2-5.2
		c0-31.7-23.4-57.5-52.1-57.5s-52,25.8-52,57.5c0,1.7,0.1,3.4,0.2,5.1c0.4,4.7-1.3,9.4-4.7,12.8c-5.5,5.4-12.1,14.3-12.1,25.9
		c0.1,6.5,2,12.8,5.7,18.1c3.6,5.6,3.4,12.8-0.5,18.2c-0.9,1.2-1.7,2.5-2.4,3.9c-4.1,7.8-13.8,10.8-21.6,6.7
		c-7.4-3.9-10.5-12.8-7.3-20.4c-3.8-8.3-5.8-17.3-5.8-26.4c0-15.4,5.8-30.6,16.6-43.3v-0.5c0-49.3,37.7-89.5,84-89.5
		s84.1,40.1,84.1,89.5v0.5c10.7,12.7,16.6,27.9,16.6,43.3c0,9.1-2,18.1-5.8,26.4c3.5,8.1-0.3,17.5-8.4,21
		C332.4,267.6,330.3,268,328.1,268z"/>
	<path class="st0" d="M248,268c-8.8,0-16-7.2-16-16v-72c0-8.8,7.2-16,16-16l0,0c8.8,0,16,7.2,16,16v72C264,260.8,256.8,268,248,268z
		"/>
	<path class="st0" d="M62,268c-4.2,0-8.2-1.7-11.2-4.6c-16.3-15.9-26.1-37.2-27.5-59.9c-1.3-22.9,6.3-44.5,21.5-60.7
		c15.4-16.5,36.7-25.6,60-25.6h0.3c23.2,0.2,45.6,9.2,62.4,25.2l0.4,0.3c6.2,0.3,12.3,1.4,18.2,3.2c8.4,2.7,13.1,11.7,10.4,20.1
		c-2.7,8.3-11.5,13-19.9,10.4c-4.8-1.4-9.8-2-14.8-1.8c-4.7,0.2-9.3-1.7-12.5-5.2c-1.3-1.4-2.5-2.6-3.6-3.7
		c-11-10.5-25.5-16.4-40.7-16.6h-0.2c-14.3,0-27.3,5.5-36.6,15.4c-9.1,9.8-13.7,22.9-12.9,37c1,14.8,7.4,28.7,18.1,39
		c6.3,6.2,6.4,16.3,0.2,22.6C70.4,266.3,66.3,268,62,268z"/>
	<path class="st0" d="M161.9,268c-4.1,0-8-1.5-11-4.3l-46.9-44c-6.4-6.1-6.7-16.2-0.7-22.7c6.1-6.4,16.2-6.7,22.7-0.7l46.9,44
		c6.4,6,6.8,16.2,0.7,22.6C170.6,266.2,166.3,268,161.9,268z"/>
	<path class="st0" d="M464.2,268c-0.4,0-0.8,0-1.2,0c-8.8-0.7-15.4-8.4-14.7-17.2c3.5-46.8-6.1-103.1-35.6-116.2
		c-20.9-9.3-54.3,2.6-89.3,31.8c-6.8,5.7-16.9,4.7-22.5-2c-5.7-6.8-4.7-16.9,2-22.5c45.3-37.8,90-51,122.8-36.4
		c21.6,9.6,37.8,31,46.9,62c7.2,24.5,9.9,55,7.6,85.9C479.5,261.5,472.6,268,464.2,268z"/>
	<path class="st0" d="M417,268c-8.8,0-16-7.2-16-16c0-21-17-38-38-38c-8,0-15.8,2.5-22.3,7.2c-7.1,5.2-17.1,3.7-22.4-3.4
		c-5.2-7.1-3.7-17.1,3.4-22.4l0.1-0.1c31.3-22.7,75.1-15.7,97.8,15.6c8.7,11.9,13.3,26.3,13.3,41.1C433,260.8,425.8,268,417,268z"/>
	<path class="st0" d="M82.9,152.6c-7.7,0-14.2-5.4-15.7-12.9c-1.5-7.7-2.3-15.6-2.3-23.5c-0.1-31.8,12.3-62.4,34.4-85.3
		c5.4-5.6,14.1-6.5,20.6-2.1l102.2,70.4c7.3,5,9.1,15,4.1,22.3s-15,9.1-22.3,4.1l-90.2-62.1c-14.4,20.3-19.9,45.7-15.2,70.1
		c1.7,8.7-4,17.1-12.7,18.8l0,0C85,152.6,84,152.7,82.9,152.6z"/>
	<path class="st0" d="M361,139.8c-8.8,0-15.9-7.1-16-15.9c0-6.6-2.7-19.6-8.5-32.6C330.4,77.6,324.8,73,323,72.1
		c-1.6,0.8-6,4.4-11.2,14.4c-4.9,9.6-8.3,19.8-10.1,30.4c-1.4,8.7-9.6,14.7-18.4,13.3s-14.7-9.6-13.3-18.4
		c4.6-27.7,22.9-71.8,53-71.8c11.1,0,27.3,6.1,41.2,35c7.7,16,12.7,35.1,12.8,48.6c0.1,8.8-7.1,16-15.9,16.1l0,0L361,139.8z"/>
</g>
</svg>
