<?xml version="1.0" encoding="utf-8"?>
<!-- Generator: Adobe Illustrator 24.1.2, SVG Export Plug-In . SVG Version: 6.00 Build 0)  -->
<svg version="1.1" id="Layer_1" xmlns="http://www.w3.org/2000/svg" xmlns:xlink="http://www.w3.org/1999/xlink" x="0px" y="0px"
	 viewBox="0 0 512 512" style="enable-background:new 0 0 512 512;" xml:space="preserve">
<style type="text/css">
	.st0{fill:#FFFFFF;}
</style>
<g id="Eiffel">
	<path class="st0" d="M496,512H16c-8.8,0-16-7.2-16-16s7.2-16,16-16h480c8.8,0,16,7.2,16,16S504.8,512,496,512z"/>
	<path class="st0" d="M461,512h-99c-4.6,0-9-2-12-5.5l-31.9-36.3c-11.1-12.6-23.8-23.7-37.9-33l0,0c-14.7-9.7-33.8-9.7-48.5,0
		c-14,9.2-26.8,20.3-37.9,33L162,506.5c-3,3.5-7.4,5.4-12,5.5H51c-8.8,0-16-7.2-16-16c0-4,1.5-7.8,4.1-10.7l78.1-86.9
		c39-43.2,63.8-97.3,71.2-155L212.1,60c1-8,7.8-14,15.9-14h56c8.1,0,14.9,6,15.9,14l23.7,183.4c7.4,57.7,32.2,111.8,71.2,155
		l78.1,86.9c5.9,6.6,5.4,16.7-1.2,22.6C468.8,510.5,465,512,461,512z M369.3,480h55.9L371,419.8c-43.3-48-70.9-108.2-79.1-172.3
		L269.9,78H242l-21.9,169.5c-8.2,64.2-35.8,124.3-79.1,172.3L86.9,480h55.8l27.1-30.9c13-14.8,27.9-27.8,44.3-38.6
		c25.4-16.7,58.3-16.7,83.7,0c0.2,0,23.4,14.7,44.3,38.6L369.3,480z M281.4,437.9c2.3,1.3,5,2,7.7,2
		C286.3,439.9,283.7,439.2,281.4,437.9z"/>
	<path class="st0" d="M256,78c-8.8,0-16-7.2-16-16V16c0-8.8,7.2-16,16-16c8.8,0,16,7.2,16,16v46C272,70.8,264.8,78,256,78z"/>
	<path class="st0" d="M381,376H131c-8.8,0-16-7.2-16-16s7.2-16,16-16h250c8.8,0,16,7.2,16,16S389.8,376,381,376z"/>
	<path class="st0" d="M334,268H178c-8.8,0-16-7.2-16-16c0-8.8,7.2-16,16-16h156c8.8,0,16,7.2,16,16C350,260.8,342.8,268,334,268z"/>
	<path class="st0" d="M262.1,370.7l-6.1-6.8l-6.1,6.8c-6.1,6.4-16.2,6.7-22.6,0.6c-6.2-5.9-6.7-15.5-1.1-22l18-20
		c5.9-6.6,16-7.1,22.6-1.2c0.4,0.4,0.8,0.8,1.2,1.2l18,20c6,6.4,5.7,16.6-0.7,22.6s-16.6,5.7-22.6-0.7
		C262.4,371,262.2,370.8,262.1,370.7L262.1,370.7z"/>
	<path class="st0" d="M256,356c-8.8,0-16-7.2-16-16v-34c0-8.8,7.2-16,16-16c8.8,0,16,7.2,16,16v34C272,348.8,264.8,356,256,356z"/>
	<path class="st0" d="M303,78h-94c-8.8,0-16-7.2-16-16s7.2-16,16-16h94c8.8,0,16,7.2,16,16S311.8,78,303,78z"/>
</g>
</svg>
