<?xml version="1.0" encoding="utf-8"?>
<!-- Generator: Adobe Illustrator 24.1.2, SVG Export Plug-In . SVG Version: 6.00 Build 0)  -->
<svg version="1.1" id="Layer_1" xmlns="http://www.w3.org/2000/svg" xmlns:xlink="http://www.w3.org/1999/xlink" x="0px" y="0px"
	 viewBox="0 0 48 48" style="enable-background:new 0 0 48 48;" xml:space="preserve">
<style type="text/css">
	.st0{fill:#FFFFFF;stroke:#FFFFFF;stroke-width:0.75;stroke-miterlimit:10;}
</style>
<g>
	<path class="st0" d="M46.3,10.7h-7.8c0-7.1-7.6-11.7-14.1-8.5c-6.4-3.2-14,1.4-14,8.5H1.7c-0.5,0-1,0.4-1,1V44
		c0,1.6,1.3,2.9,2.9,2.9c15.5,0,25.4,0,40.8,0c1.6,0,2.9-1.3,2.9-2.9V11.6C47.3,11.1,46.9,10.7,46.3,10.7z M36.6,10.7h-6.8
		c0-2.9-1.3-5.5-3.4-7.2C31.5,1.8,36.6,5.5,36.6,10.7z M24.5,4.4c2,1.4,3.4,3.7,3.4,6.3h-6.8C21.1,8.1,22.4,5.8,24.5,4.4z M22.6,3.5
		c-2.1,1.7-3.4,4.3-3.4,7.2h-6.8C12.3,5.5,17.5,1.8,22.6,3.5z M6.5,42.5L9,44.9H4L6.5,42.5z M10.4,12.6v31l-2.9-2.9V22.1
		c0-1.3-1.9-1.3-1.9,0v18.6l-2.9,2.9v-31C2.7,12.6,10.4,12.6,10.4,12.6z M45.4,44c0,0.5-0.4,1-1,1h-32V12.6h6.8v2.2
		c-1.7,1-1,3.5,1,3.5s2.7-2.6,1-3.5v-2.2h15.5v2.2c-1.7,1-1,3.5,1,3.5s2.7-2.6,1-3.5v-2.2h6.8L45.4,44L45.4,44z"/>
</g>
</svg>
